<?xml version="1.0" standalone="no"?>
<!DOCTYPE svg PUBLIC "-//W3C//DTD SVG 20010904//EN"
 "http://www.w3.org/TR/2001/REC-SVG-20010904/DTD/svg10.dtd">
<svg version="1.0" xmlns="http://www.w3.org/2000/svg"
 width="136.000000pt" height="136.000000pt" viewBox="0 0 136.000000 136.000000"
 preserveAspectRatio="xMidYMid meet">
<metadata>
Created by potrace 1.14, written by Peter Selinger 2001-2017
</metadata>
<g transform="translate(0.000000,136.000000) scale(0.100000,-0.100000)"
fill="#000000" stroke="none">
<path d="M420 1199 c-40 -12 -76 -42 -96 -81 -15 -28 -50 -151 -59 -208 -3
-19 -10 -54 -15 -77 -12 -52 -24 -204 -24 -308 0 -279 48 -386 171 -380 82 5
104 35 153 208 71 254 212 514 273 505 27 -4 30 -43 11 -168 -7 -47 -15 -105
-18 -130 -3 -25 -8 -56 -11 -70 -3 -14 -8 -72 -11 -130 -10 -166 21 -213 140
-214 122 -1 142 33 150 252 4 84 8 167 11 185 2 18 7 49 10 70 3 21 7 59 10
85 3 26 8 61 12 77 13 64 27 199 26 255 -1 97 -60 147 -163 137 -157 -14 -329
-176 -443 -419 -21 -43 -37 -82 -37 -87 0 -5 -4 -12 -8 -15 -12 -7 14 149 49
294 31 127 40 202 26 216 -12 12 -119 14 -157 3z"/>
</g>
</svg>
